<?xml version="1.0" encoding="UTF-8" standalone="no"?>
<!-- Created with Inkscape (http://www.inkscape.org/) -->

<svg
   width="400"
   height="100"
   viewBox="0 0 105.83333 26.458333"
   version="1.1"
   id="svg5"
   xml:space="preserve"
   xmlns="http://www.w3.org/2000/svg"
   xmlns:svg="http://www.w3.org/2000/svg"><defs
     id="defs2" /><g
     id="layer1"><rect
       style="opacity:0.9;fill:#000000;fill-opacity:1;stroke-width:0.2;stroke-linecap:round"
       id="rect1134"
       width="105.83333"
       height="26.458332"
       x="0"
       y="0"
       ry="0.24815215" /><g
       id="g2216"
       transform="translate(-3.0828817)"
       style="font-size:15.1903px;-inkscape-font-specification:sans-serif;fill:#f9f9f9;stroke-width:0.956872;stroke-linecap:round"><path
         d="m 35.573636,7.8973705 4.238093,10.6332105 h 1.853217 L 45.963801,7.8973705 H 44.095394 L 40.783909,16.540651 37.502804,7.8973705 Z"
         style="opacity:1"
         id="path2161" /><path
         d="M 47.593975,7.8973705 V 18.530581 h 1.792455 v -4.359617 h 4.830516 V 12.575983 H 49.38643 V 9.5075423 h 5.331796 l 0.01519,-1.6101718 z"
         style="font-family:Montserrat;-inkscape-font-specification:Montserrat;opacity:1"
         id="path2158" /><path
         d="M 56.515496,7.8973705 V 18.530581 h 7.777434 v -1.610172 h -5.984978 v -2.931728 h 5.195082 V 12.393699 H 58.307952 V 9.5075423 h 5.802694 V 7.8973705 Z"
         style="font-family:Montserrat;-inkscape-font-specification:Montserrat;opacity:1"
         id="path2155" /><path
         d="m 65.406629,7.8973705 v 1.6101718 h 3.357056 v 9.0230387 h 1.792456 V 9.5075423 h 3.372246 V 7.8973705 Z"
         style="font-family:Montserrat;-inkscape-font-specification:Montserrat;opacity:1"
         id="path2152" /><path
         d="m 82.713194,10.798718 1.048131,-1.306366 c -1.032941,-1.0177501 -2.53678,-1.6405524 -4.04062,-1.6405524 -3.144392,0 -5.59003,2.3241164 -5.59003,5.3469854 0,3.053251 2.415257,5.407747 5.529269,5.407747 1.503839,0 3.03806,-0.683563 4.116571,-1.746884 l -1.063321,-1.184844 c -0.805086,0.774705 -1.898787,1.260795 -2.962108,1.260795 -2.126642,0 -3.797575,-1.655743 -3.797575,-3.752004 0,-2.096261 1.670933,-3.7368139 3.797575,-3.7368139 1.078511,0 2.187403,0.5164702 2.962108,1.3519369 z"
         style="font-family:Montserrat;-inkscape-font-specification:Montserrat;opacity:1"
         id="path2149" /><path
         d="M 85.786446,7.8973705 V 18.530581 h 1.792456 v -4.405187 h 5.635601 v 4.405187 h 1.792456 V 7.8973705 H 93.214503 V 12.515222 H 87.578902 V 7.8973705 Z"
         style="font-family:Montserrat;-inkscape-font-specification:Montserrat;opacity:1"
         id="path2146" /></g><path
       d="M 20.338807,17.646577 17.021504,13.936744 H 19.59585 V 8.9836972 h 1.485915 v 4.9530468 l 2.623381,0.02264 z M 14.39515,18.889792 H 26.282464 V 7.5685403 H 14.39515 Z m -1.485913,1.415156 H 27.768378 V 6.1533852 H 12.909237 Z"
       id="download-[#1458]"
       style="opacity:0.59156916;fill:#f9f9f9;fill-rule:evenodd;stroke:none;stroke-width:0.707578" /></g></svg>
